# xmcd
#
# Track frame offsets:
#	150
#	20482
#	37706
#	58303
#	76776
#	101688
#	123636
#	143224
#	161778
#	184073
#	200094
#
# Disc length: 2848 seconds
#
# Revision: 0
# Processed by: cddbd v1.5.2PL0 Copyright (c) Steve Scherf et al.
# Submitted via: EasyCDDAExtractor 15.3.0.1
#
DISCID=970b1e0b
DTITLE=Jimmy Bowskill Band - Back Number
DYEAR=2012
DGENRE=Blues
TTITLE0=Take A Ride
TTITLE1=Linger On Sweet Time
TTITLE2=Salty Dog
TTITLE3=Little Bird
TTITLE4=Spirit of the Town
TTITLE5=Sin's A Good Man's Brother
TTITLE6=Sinking Down
TTITLE7=Down The Road
TTITLE8=Seasons Change
TTITLE9=Broke Down Engine
TTITLE10=Least Of My Worries
EXTD=
EXTT0=
EXTT1=
EXTT2=
EXTT3=
EXTT4=
EXTT5=
EXTT6=
EXTT7=
EXTT8=
EXTT9=
EXTT10=
PLAYORDER=
